<svg xmlns="http://www.w3.org/2000/svg" xmlns:xlink="http://www.w3.org/1999/xlink" width="198.794" height="153.156" viewBox="0 0 198.794 153.156">
  <defs>
    <linearGradient id="linear-gradient" x1="1.195" y1="0.902" x2="-0.138" y2="0.195" gradientUnits="objectBoundingBox">
      <stop offset="0" stop-color="#fe9d8e"/>
      <stop offset="1" stop-color="#ef78b0"/>
    </linearGradient>
  </defs>
  <g id="hezni" transform="translate(-1521.83 -143.125)">
    <g id="Groupe_149" data-name="Groupe 149" transform="translate(1521.83 143.125)">
      <path id="Tracé_761" data-name="Tracé 761" d="M1743.043,143.271s-38.482-.309-44.032-.026a4.039,4.039,0,0,0-2.6.946,3.354,3.354,0,0,0-1.055,2.367c-.055,2.993-.047,5.989,0,8.983a3.254,3.254,0,0,0,2.646,3.219c1.091.3,2.184.586,3.328.892.248.729.307,1.316-.795,1.454a20.747,20.747,0,0,0-2.437.621,3.423,3.423,0,0,0-2.745,3.3c-.037,2.952-.062,5.906.012,8.856a3.029,3.029,0,0,0,2.089,3.124c.951.3,1.954.445,2.887.789.435.16.757.625,1.131.952a5.285,5.285,0,0,1-1.162.918,9.351,9.351,0,0,1-1.727.346c-1.991.4-3.2,1.649-3.229,3.473q-.064,4.427,0,8.857a3.414,3.414,0,0,0,2.8,3.4c.889.225,1.794.406,2.66.7a1.052,1.052,0,0,1,.613.743,1.007,1.007,0,0,1-.578.747c-.908.311-1.849.528-2.784.756a3.248,3.248,0,0,0-2.7,3.159q-.079,4.554,0,9.11a3.173,3.173,0,0,0,3.2,3.2c6.959.029,13.917.005,20.876.019a2.219,2.219,0,0,0,2.275-1.793,5.747,5.747,0,0,0,.08-1.633c0-2.124-.786-2.922-2.874-2.925q-6.516-.009-13.032,0h-3.863a13.919,13.919,0,0,1,.08-3.214c.1-.389,1.094-.55,1.679-.822.151-.07.287-.174.438-.245,2.847-1.333,3.995-3.449,3.847-7.093a6.146,6.146,0,0,0-4.341-5.843c-1.529-.457-2.048-1.231-1.818-2.7a4.29,4.29,0,0,0,.008-.885,1.137,1.137,0,0,1,.949-1.344c2.552-.83,4.6-2.275,5.03-5.18.089-.595-.165-1.237-.1-1.84a5.672,5.672,0,0,0-3.661-6.369c-2.233-.883-2.233-.883-2.22-3.237a1.858,1.858,0,0,0,0-.253c-.136-1.03.427-1.384,1.32-1.782a9.213,9.213,0,0,0,3.383-2.216,7.233,7.233,0,0,0-3.66-11.434,1.527,1.527,0,0,1-.967-.892,18.442,18.442,0,0,1-.046-2.757H1733.4c-.127.561-.224,1.007-.33,1.45-.436,1.839-.93,3.667-1.3,5.519-.951,4.742-1.9,9.485-2.747,14.247a63.827,63.827,0,0,0-1.314,9.488c-.228,9.526-.207,19.059-.235,28.589-.007,2.382,1.193,3.684,3.81,4.293a31.226,31.226,0,0,0,6.73.814c9.573.092,19.147.08,28.719.019a3.206,3.206,0,0,1,2.923,1.441,14.52,14.52,0,0,0,9.794,5.783,15.452,15.452,0,0,0,15.426-6.327,1.969,1.969,0,0,1,1.789-.886c2.318.072,4.639,0,6.958.034a2.273,2.273,0,0,0,2.308-1.59c1.08-2.635-.331-4.766-3.137-4.768h-4.882c.931-11.571-7.68-17.712-14.727-18.116a15.613,15.613,0,0,0-11.045,3.395c-4.6,3.716-6.452,8.706-5.976,14.641-.486.032-.855.078-1.224.078-8.773,0-17.546.022-26.318-.017-1.535-.007-3.069-.257-4.629-.4a2.983,2.983,0,0,1,.043-.681c.547-1.45,1.821-1.979,3.131-2.494,1.858-.73,3.745-1.415,5.529-2.3a3.173,3.173,0,0,0,1.111-4.2,3.26,3.26,0,0,0-3.945-1.4c-1.909.731-3.831,1.426-5.913,2.2,0-1.043.029-1.959-.007-2.871a2.732,2.732,0,0,1,1.864-2.732q6.717-2.769,13.508-5.357c4.155-1.575,7.266-4.132,8.4-8.586.278-1.093.766-1.342,1.817-1.34q21.826.049,43.653.021c2.058,0,2.814-.89,2.919-3.05.118-2.451-1.091-3.361-2.874-3.326-4.638.09-9.279,0-13.917.057-1.123.014-1.439-.345-1.432-1.445.045-6.284.054-12.569-.007-18.852-.012-1.22.412-1.459,1.526-1.446,4.681.055,9.363,0,14.045.036,1.145.008,2.136-.339,2.35-1.45a8.649,8.649,0,0,0-.034-3.534c-.295-1.245-1.476-1.4-2.651-1.387-3.753.032-7.507.012-11.261.012H1780.59c-8.412,0-8.577,0-11.388,0-5.173-.007-6.535-.023-11.26-.031C1748.046,143.225,1746.083,143.3,1743.043,143.271Zm16.563,6.331c3.457.041,6.914.016,10.371.015s6.915.025,10.371-.018c.885-.011,1.173.285,1.169,1.154q-.038,9.676,0,19.351c0,.938-.328,1.231-1.259,1.227q-10.372-.047-20.743,0c-.938,0-1.238-.32-1.233-1.253.032-6.408.042-12.817,0-19.225C1758.268,149.793,1758.668,149.591,1759.606,149.6Zm-25.145,27.829c.814-5.227,1.888-10.414,2.9-15.608.564-2.881,1.163-5.759,1.87-8.608.678-2.729,2.269-3.32,4.573-3.516,2.344-.2,4.716-.046,7.075-.094.789-.016,1.032.319,1.031,1.048-.015,8.217,0,16.434-.034,24.651a6.129,6.129,0,0,1-4.3,6.02q-6.513,2.587-13.027,5.174a3,3,0,0,1-.757.007C1734,183.452,1734,180.405,1734.461,177.432Zm47.586,37.61a9.481,9.481,0,1,1,9.533-9.3A9.258,9.258,0,0,1,1782.047,215.042Z" transform="translate(-1651.412 -143.125)" fill="url(#linear-gradient)"/>
      <g id="Groupe_146" data-name="Groupe 146" transform="translate(12.034 89.782)">
        <path id="Tracé_762" data-name="Tracé 762" d="M1574.217,505.744a9.514,9.514,0,0,0-.846-4.565q-.848-1.48-3.386-1.481h-.6v-1.814h7.255a6.267,6.267,0,0,1,3.325.725,4,4,0,0,1,1.632,2.388,17.924,17.924,0,0,1,.484,4.746v9.976H1598.4V497.885h7.86v32.043a9.5,9.5,0,0,0,.846,4.565q.846,1.482,3.386,1.481h.6v1.814h-7.255a6.481,6.481,0,0,1-3.325-.7,3.859,3.859,0,0,1-1.632-2.358,18.174,18.174,0,0,1-.484-4.806V518.441h-16.324v19.347h-7.86Z" transform="translate(-1569.38 -497.885)" fill="#666"/>
        <path id="Tracé_763" data-name="Tracé 763" d="M1775.448,568.576a13.116,13.116,0,0,1-4.867-5.29,16.366,16.366,0,0,1-1.723-7.588,17.3,17.3,0,0,1,1.723-8.041,11.991,11.991,0,0,1,4.746-5.048,13.547,13.547,0,0,1,6.832-1.723,14.941,14.941,0,0,1,6.771,1.511,11.806,11.806,0,0,1,4.776,4.262,11.505,11.505,0,0,1,1.753,6.318q0,1.149-.121,2.6l-.121,1.209h-18.2q0,5.744,1.753,8.374a5.565,5.565,0,0,0,4.9,2.63,8.627,8.627,0,0,0,4.867-1.3,15.6,15.6,0,0,0,3.779-3.718l1.874,1.39a15.933,15.933,0,0,1-4.383,4.534,12.2,12.2,0,0,1-7.043,1.814A13.669,13.669,0,0,1,1775.448,568.576Zm11.85-14.51q0-5.682-1.33-8.071a4.164,4.164,0,0,0-3.809-2.388,4.22,4.22,0,0,0-3.718,2.448q-1.421,2.449-1.421,8.011Z" transform="translate(-1718.375 -530.003)" fill="#666"/>
        <path id="Tracé_764" data-name="Tracé 764" d="M1915.3,569.816l15.9-23.821h-7.134q-3.81,0-5.381,1.36a5.505,5.505,0,0,0-1.572,4.383H1915.3v-3.627q0-4.836,5.139-4.837h21.524l-17.171,25.7h15.9v2.721H1915.3Z" transform="translate(-1827.754 -531.787)" fill="#666"/>
        <path id="Tracé_765" data-name="Tracé 765" d="M2053.138,549.35a9.814,9.814,0,0,0-.816-4.565q-.817-1.481-3.356-1.482h-.6V541.49h5.985a8.292,8.292,0,0,1,3.235.514,3.819,3.819,0,0,1,1.844,1.723q3.083-2.841,8.827-2.842t8.615,2.69q2.871,2.691,2.872,8.434v17.9h-7.86V551.95q0-4.172-1.542-6.106a5.084,5.084,0,0,0-4.2-1.935,9.685,9.685,0,0,0-3.3.514,6.078,6.078,0,0,0-2.267,1.36l.181.847a8.206,8.206,0,0,1,.242,2.358v20.919h-7.86Z" transform="translate(-1927.142 -530.003)" fill="#666"/>
        <path id="Tracé_766" data-name="Tracé 766" d="M2214.452,517.945a9.509,9.509,0,0,0-.847-4.565q-.847-1.481-3.385-1.482h-.6v-1.814h7.255a6.266,6.266,0,0,1,3.325.726,4.007,4.007,0,0,1,1.632,2.388,17.908,17.908,0,0,1,.484,4.746V538.5h-7.86Zm.574-12.455a4.745,4.745,0,0,1-1.179-3.265,3.169,3.169,0,0,1,3.326-3.386,4.251,4.251,0,0,1,3.355,1.33,4.748,4.748,0,0,1,1.179,3.265,3.168,3.168,0,0,1-3.325,3.386A4.247,4.247,0,0,1,2215.026,505.49Z" transform="translate(-2047.585 -498.598)" fill="#666"/>
      </g>
      <g id="Groupe_147" data-name="Groupe 147" transform="translate(0 138.16)">
        <path id="Tracé_767" data-name="Tracé 767" d="M1528.626,698.593l-3.88-5.832a9.6,9.6,0,0,0-1.436-1.644,2.662,2.662,0,0,0-1.48-.767v-.438h2.39a3.241,3.241,0,0,1,2.028.7,6.559,6.559,0,0,1,1.546,1.71l2.981,4.494,4.253-6.906h1.425L1531.476,698v6.38h-2.85Z" transform="translate(-1521.83 -689.693)" fill="#666"/>
        <path id="Tracé_768" data-name="Tracé 768" d="M1580.41,715.446a2.647,2.647,0,0,1-.976-2.16,3.06,3.06,0,0,1,.515-1.82,3.228,3.228,0,0,1,1.809-1.1,13.577,13.577,0,0,1,3.6-.373h.329a5.159,5.159,0,0,0-.526-2.707,1.743,1.743,0,0,0-1.557-.8,2.257,2.257,0,0,0-1.4.417,2.559,2.559,0,0,0-.789,1.556H1580.2a7.029,7.029,0,0,1,.1-1.271,1.881,1.881,0,0,1,.45-.921q.679-.767,3.288-.767a4.529,4.529,0,0,1,3.343,1.151,4.69,4.69,0,0,1,1.151,3.453v5.919h-1.863l-.767-.987h-.11a2.435,2.435,0,0,1-.614.614,3.157,3.157,0,0,1-2.017.592A4.227,4.227,0,0,1,1580.41,715.446Zm4.2-.482a2.7,2.7,0,0,0,.635-.515,2.139,2.139,0,0,0,.439-.724v-2.74h-.329a3.634,3.634,0,0,0-2.258.559,2.093,2.093,0,0,0-.7,1.743,2.218,2.218,0,0,0,.373,1.381,1.253,1.253,0,0,0,1.052.482A1.577,1.577,0,0,0,1584.608,714.964Z" transform="translate(-1564.856 -701.339)" fill="#666"/>
        <path id="Tracé_769" data-name="Tracé 769" d="M1652.025,708.573a3.557,3.557,0,0,0-.3-1.655,1.264,1.264,0,0,0-1.216-.537h-.219v-.658h2.17a1.908,1.908,0,0,1,1.864.833h.088a4.291,4.291,0,0,1,4.637-.647,3.484,3.484,0,0,1,1.151.844,4,4,0,0,1,1.249-.909,4.4,4.4,0,0,1,1.864-.34q3.836,0,3.836,4.034v6.489h-2.85v-6.511a3.983,3.983,0,0,0-.482-2.214,1.478,1.478,0,0,0-1.272-.7,2.606,2.606,0,0,0-1.1.23,2.026,2.026,0,0,0-.789.6q.044.088.175.482a6.4,6.4,0,0,1,.175,1.622v6.489h-2.85v-6.511a3.979,3.979,0,0,0-.482-2.214,1.478,1.478,0,0,0-1.271-.7,1.964,1.964,0,0,0-.954.274,2.242,2.242,0,0,0-.734.6l.065.307a2.963,2.963,0,0,1,.088.855v7.388h-2.85Z" transform="translate(-1617.782 -701.339)" fill="#666"/>
        <path id="Tracé_770" data-name="Tracé 770" d="M1730.1,715.347a1.527,1.527,0,0,1-.438-.932,12.294,12.294,0,0,1-.088-1.677h.767a3.269,3.269,0,0,0,.9,1.83,2.661,2.661,0,0,0,1.951.691q2.192,0,2.193-1.491a1.154,1.154,0,0,0-.472-.943,7.444,7.444,0,0,0-1.5-.833l-1.14-.482a6.607,6.607,0,0,1-2.1-1.337,2.564,2.564,0,0,1,.449-3.9,5.346,5.346,0,0,1,3.015-.767,5.236,5.236,0,0,1,3.53.9,1.522,1.522,0,0,1,.438.921,12.346,12.346,0,0,1,.088,1.688h-.767a3.274,3.274,0,0,0-.9-1.831,2.663,2.663,0,0,0-1.951-.691,2.075,2.075,0,0,0-1.4.406,1.374,1.374,0,0,0-.46,1.085,1.2,1.2,0,0,0,.384.91,4.237,4.237,0,0,0,1.173.712l1.315.548a7.7,7.7,0,0,1,2.335,1.37,2.563,2.563,0,0,1-.526,3.968,6.19,6.19,0,0,1-3.256.756A5.232,5.232,0,0,1,1730.1,715.347Z" transform="translate(-1676.918 -701.339)" fill="#666"/>
        <path id="Tracé_771" data-name="Tracé 771" d="M1774.447,715.446a2.647,2.647,0,0,1-.976-2.16,3.059,3.059,0,0,1,.516-1.82,3.226,3.226,0,0,1,1.808-1.1,13.577,13.577,0,0,1,3.6-.373h.329a5.159,5.159,0,0,0-.526-2.707,1.743,1.743,0,0,0-1.557-.8,2.257,2.257,0,0,0-1.4.417,2.56,2.56,0,0,0-.789,1.556h-1.206a7.02,7.02,0,0,1,.1-1.271,1.88,1.88,0,0,1,.45-.921q.679-.767,3.288-.767a4.529,4.529,0,0,1,3.343,1.151,4.691,4.691,0,0,1,1.151,3.453v5.919h-1.864l-.767-.987h-.11a2.428,2.428,0,0,1-.614.614,3.156,3.156,0,0,1-2.017.592A4.227,4.227,0,0,1,1774.447,715.446Zm4.2-.482a2.7,2.7,0,0,0,.635-.515,2.131,2.131,0,0,0,.439-.724v-2.74h-.329a3.633,3.633,0,0,0-2.258.559,2.094,2.094,0,0,0-.7,1.743,2.219,2.219,0,0,0,.372,1.381,1.253,1.253,0,0,0,1.053.482A1.577,1.577,0,0,0,1778.645,714.964Z" transform="translate(-1709.786 -701.339)" fill="#666"/>
        <path id="Tracé_772" data-name="Tracé 772" d="M1820.61,694.416h-1.315v-.987h1.315v-.592a3.624,3.624,0,0,1,1.063-2.828,4.647,4.647,0,0,1,3.212-.965,6.743,6.743,0,0,1,1.173.1,2.23,2.23,0,0,1,.822.274,2.063,2.063,0,0,1,.855.943l-.877.767a2.4,2.4,0,0,0-.811-.811,2.034,2.034,0,0,0-1.052-.285,1.257,1.257,0,0,0-1.151.636,4.456,4.456,0,0,0-.384,2.17v.592h2.85v.987h-2.85v9.317h-2.85Z" transform="translate(-1744.013 -689.045)" fill="#666"/>
        <path id="Tracé_773" data-name="Tracé 773" d="M1856.769,715.545a4.753,4.753,0,0,1-1.765-1.918,5.939,5.939,0,0,1-.625-2.752,6.276,6.276,0,0,1,.625-2.916,4.35,4.35,0,0,1,1.721-1.831,4.914,4.914,0,0,1,2.477-.625,5.419,5.419,0,0,1,2.455.548,4.28,4.28,0,0,1,1.732,1.546,4.169,4.169,0,0,1,.636,2.291q0,.417-.044.943l-.044.438h-6.6a5.606,5.606,0,0,0,.636,3.036,2.017,2.017,0,0,0,1.776.954,3.128,3.128,0,0,0,1.765-.471,5.644,5.644,0,0,0,1.37-1.348l.68.5a5.784,5.784,0,0,1-1.589,1.644,4.426,4.426,0,0,1-2.554.657A4.955,4.955,0,0,1,1856.769,715.545Zm4.3-5.261a6.43,6.43,0,0,0-.482-2.927,1.51,1.51,0,0,0-1.381-.866,1.531,1.531,0,0,0-1.348.888,6.085,6.085,0,0,0-.515,2.9Z" transform="translate(-1770.218 -701.339)" fill="#666"/>
        <path id="Tracé_774" data-name="Tracé 774" d="M1908.583,706.567a3.508,3.508,0,0,1,.175.362l-1.118.855a3.4,3.4,0,0,0-.395-.417,1.612,1.612,0,0,0-1.118-.438,2.641,2.641,0,0,0-1.951.68l.044.329a6.615,6.615,0,0,1,.044.724v7.366h-2.85v-7.454a3.56,3.56,0,0,0-.3-1.655,1.265,1.265,0,0,0-1.217-.537h-.219v-.658h2.17a3.012,3.012,0,0,1,1.173.186,1.388,1.388,0,0,1,.669.625,4.076,4.076,0,0,1,2.762-1.03,2.615,2.615,0,0,1,1.557.438A1.824,1.824,0,0,1,1908.583,706.567Z" transform="translate(-1804.056 -701.339)" fill="#666"/>
        <path id="Tracé_775" data-name="Tracé 775" d="M1965,691.829a5.213,5.213,0,0,0-.987-1.71,2,2,0,0,0-1.184-.592v-.439l.921-.044a5.765,5.765,0,0,1,2.565.537,3.973,3.973,0,0,1,1.776,2.247l2.959,7.563,1.973-5.612-.767-1.951a4.763,4.763,0,0,0-1.042-1.7,2.257,2.257,0,0,0-1.282-.6v-.439l.855-.044a5.672,5.672,0,0,1,2.565.548,4.024,4.024,0,0,1,1.776,2.236l3.135,7.98,3.749-10.545h1.052l-5.2,14.666h-.877l-3.376-8.594-3,8.594h-.877Z" transform="translate(-1851.224 -689.045)" fill="#666"/>
        <path id="Tracé_776" data-name="Tracé 776" d="M2047.487,715.446a2.647,2.647,0,0,1-.976-2.16,3.059,3.059,0,0,1,.516-1.82,3.227,3.227,0,0,1,1.809-1.1,13.576,13.576,0,0,1,3.6-.373h.329a5.159,5.159,0,0,0-.526-2.707,1.743,1.743,0,0,0-1.557-.8,2.257,2.257,0,0,0-1.4.417,2.56,2.56,0,0,0-.789,1.556h-1.206a7.042,7.042,0,0,1,.1-1.271,1.878,1.878,0,0,1,.45-.921q.679-.767,3.288-.767a4.529,4.529,0,0,1,3.344,1.151,4.69,4.69,0,0,1,1.151,3.453v5.919h-1.864l-.767-.987h-.11a2.435,2.435,0,0,1-.614.614,3.157,3.157,0,0,1-2.017.592A4.227,4.227,0,0,1,2047.487,715.446Zm4.2-.482a2.694,2.694,0,0,0,.635-.515,2.129,2.129,0,0,0,.438-.724v-2.74h-.329a3.632,3.632,0,0,0-2.258.559,2.094,2.094,0,0,0-.7,1.743,2.218,2.218,0,0,0,.373,1.381,1.253,1.253,0,0,0,1.052.482A1.576,1.576,0,0,0,2051.685,714.964Z" transform="translate(-1913.725 -701.339)" fill="#666"/>
        <path id="Tracé_777" data-name="Tracé 777" d="M2091.317,692.762a3.443,3.443,0,0,0-.307-1.655,1.291,1.291,0,0,0-1.227-.537h-.219v-.658h2.631a2.272,2.272,0,0,1,1.206.263,1.453,1.453,0,0,1,.592.866,6.493,6.493,0,0,1,.176,1.721v1.929a5.544,5.544,0,0,1,.68-.417,4.017,4.017,0,0,1,1.732-.417,4.761,4.761,0,0,1,2.971.91,3.662,3.662,0,0,1,1.195,3.1v6.511h-2.85v-6.4a3.782,3.782,0,0,0-.559-2.3,1.716,1.716,0,0,0-1.414-.724,2.441,2.441,0,0,0-1.249.395,2.987,2.987,0,0,0-.5.373v8.659h-2.85Z" transform="translate(-1945.882 -689.693)" fill="#666"/>
        <path id="Tracé_778" data-name="Tracé 778" d="M2147.149,703.1a6.026,6.026,0,0,1-1.194-3.87,5.953,5.953,0,0,1,1.216-3.869,4.241,4.241,0,0,1,3.5-1.5,4.929,4.929,0,0,1,1.688.329,6.035,6.035,0,0,1,.613.329v-1.754a3.45,3.45,0,0,0-.307-1.655,1.291,1.291,0,0,0-1.228-.537h-.219v-.658h2.63a2.271,2.271,0,0,1,1.206.263,1.451,1.451,0,0,1,.592.866,6.5,6.5,0,0,1,.175,1.721v11.619h-1.864l-.767-.987h-.11a2.424,2.424,0,0,1-.614.614,2.974,2.974,0,0,1-1.907.592A4.1,4.1,0,0,1,2147.149,703.1Zm5.317-.187a3.2,3.2,0,0,0,.5-.724V695.5a2.963,2.963,0,0,0-.526-.329,3.152,3.152,0,0,0-1.337-.329q-2.193,0-2.192,4.385a8.484,8.484,0,0,0,.493,3.212,1.658,1.658,0,0,0,1.59,1.173A1.978,1.978,0,0,0,2152.466,702.912Z" transform="translate(-1988.002 -689.693)" fill="#666"/>
        <path id="Tracé_779" data-name="Tracé 779" d="M2200.06,715.545a4.75,4.75,0,0,1-1.765-1.918,5.936,5.936,0,0,1-.625-2.752,6.273,6.273,0,0,1,.625-2.916,4.348,4.348,0,0,1,1.721-1.831,4.913,4.913,0,0,1,2.477-.625,5.42,5.42,0,0,1,2.455.548,4.28,4.28,0,0,1,1.732,1.546,4.168,4.168,0,0,1,.636,2.291q0,.417-.044.943l-.044.438h-6.6a5.607,5.607,0,0,0,.636,3.036,2.017,2.017,0,0,0,1.776.954,3.128,3.128,0,0,0,1.765-.471,5.642,5.642,0,0,0,1.37-1.348l.68.5a5.786,5.786,0,0,1-1.59,1.644,4.427,4.427,0,0,1-2.554.657A4.954,4.954,0,0,1,2200.06,715.545Zm4.3-5.261a6.431,6.431,0,0,0-.482-2.927,1.51,1.51,0,0,0-1.381-.866,1.53,1.53,0,0,0-1.348.888,6.082,6.082,0,0,0-.515,2.9Z" transform="translate(-2026.629 -701.339)" fill="#666"/>
        <path id="Tracé_780" data-name="Tracé 780" d="M2249.365,704.195a4.405,4.405,0,0,1-1.5-1.348l-2.1-2.762v4.3h-2.85V692.762a3.452,3.452,0,0,0-.307-1.655,1.292,1.292,0,0,0-1.228-.537h-.219v-.658h2.63a2.27,2.27,0,0,1,1.206.263,1.452,1.452,0,0,1,.592.866,6.484,6.484,0,0,1,.175,1.721v6.248l2.653-3.245a5.808,5.808,0,0,1,1.4-1.294,3.386,3.386,0,0,1,1.753-.395h.439v.57a2.608,2.608,0,0,0-1.184.263,3.247,3.247,0,0,0-1.008.833l-2.127,2.587,2.916,3.859a3.982,3.982,0,0,0,2.039,1.666v.526a2.376,2.376,0,0,1-.647.153,6.273,6.273,0,0,1-.866.066A3.847,3.847,0,0,1,2249.365,704.195Z" transform="translate(-2059.109 -689.693)" fill="#666"/>
        <path id="Tracé_781" data-name="Tracé 781" d="M2296.23,700.983l-.417-11.071h2.916l-.439,11.071Zm.043,3.343a1.532,1.532,0,0,1,0-1.951,1.526,1.526,0,0,1,1.973,0,1.532,1.532,0,0,1,0,1.951,1.526,1.526,0,0,1-1.973,0Z" transform="translate(-2099.935 -689.693)" fill="#666"/>
      </g>
    </g>
  </g>
</svg>
